<svg width="24" height="24" viewBox="0 0 24 24" fill="none" xmlns="http://www.w3.org/2000/svg">
<path fill-rule="evenodd" clip-rule="evenodd" d="M11 1.5C8.51472 1.5 6.5 3.51472 6.5 6V7.5H5C2.51472 7.5 0.5 9.51472 0.5 12V18C0.5 20.4853 2.51472 22.5 5 22.5H11C13.4853 22.5 15.5 20.4853 15.5 18V16.5H17C19.4853 16.5 21.5 14.4853 21.5 12V6C21.5 3.51472 19.4853 1.5 17 1.5H11ZM15.5 15.5H17C18.933 15.5 20.5 13.933 20.5 12V6C20.5 4.067 18.933 2.5 17 2.5L11 2.5C9.067 2.5 7.5 4.067 7.5 6V7.5H11C13.4853 7.5 15.5 9.51472 15.5 12V15.5ZM1.5 12C1.5 10.067 3.067 8.5 5 8.5H7H11C12.933 8.5 14.5 10.067 14.5 12V16V18C14.5 19.933 12.933 21.5 11 21.5H5C3.067 21.5 1.5 19.933 1.5 18V12Z" fill="currentColor"/>
</svg>
