<svg width="24" height="24" viewBox="0 0 24 24" fill="none" xmlns="http://www.w3.org/2000/svg">
<path d="M12 1.97656C12.6016 1.97657 13.1188 2.00766 13.5508 2.10254C13.9885 2.19871 14.371 2.36706 14.6689 2.66504C14.9668 2.96302 15.1353 3.3456 15.2314 3.7832C15.3262 4.21515 15.3574 4.73257 15.3574 5.33398V8.64258H17.7148L18.1504 8.64844C18.5697 8.66155 18.9417 8.6974 19.2656 8.76855C19.7031 8.86471 20.0849 9.03325 20.3828 9.33105C20.6808 9.62903 20.8501 10.0115 20.9463 10.4492C21.0411 10.8812 21.0713 11.3986 21.0713 12V21.0234H21.5244C21.8002 21.0238 22.0242 21.2477 22.0244 21.5234C22.0244 21.7994 21.8003 22.0231 21.5244 22.0234H15.8184C15.8154 22.0235 15.8125 22.0244 15.8096 22.0244C15.8066 22.0244 15.8037 22.0235 15.8008 22.0234H14.8574V22.0244H3.42871C3.42582 22.0244 3.4228 22.0235 3.41992 22.0234H2.47656C2.20042 22.0234 1.97656 21.7996 1.97656 21.5234C1.97676 21.2475 2.20054 21.0234 2.47656 21.0234H2.92871V5.33398C2.92871 4.73253 2.95988 4.21516 3.05469 3.7832C3.15084 3.3455 3.31924 2.96305 3.61719 2.66504C3.91521 2.36702 4.29759 2.19871 4.73535 2.10254C5.16737 2.00769 5.68455 1.97656 6.28613 1.97656H12ZM6.28613 2.97656C5.70603 2.97656 5.27443 3.00767 4.94922 3.0791C4.62983 3.1493 4.44497 3.25132 4.32422 3.37207C4.20352 3.49282 4.10143 3.67778 4.03125 3.99707C3.95986 4.32225 3.92871 4.75405 3.92871 5.33398V5.78613H6.28613C6.56208 5.78636 6.78613 6.01013 6.78613 6.28613C6.78591 6.56194 6.56194 6.78591 6.28613 6.78613H3.92871V9.5957H6.28613C6.56208 9.59593 6.78613 9.8197 6.78613 10.0957C6.78588 10.3715 6.56193 10.5955 6.28613 10.5957H3.92871V13.4053H6.28613C6.56208 13.4055 6.78613 13.6293 6.78613 13.9053C6.78586 14.181 6.56191 14.405 6.28613 14.4053H3.92871V21.0234H10.5479V12C10.5479 11.3985 10.579 10.8812 10.6738 10.4492C10.77 10.0116 10.9384 9.62901 11.2363 9.33105C11.5343 9.03319 11.9169 8.8647 12.3545 8.76855C12.7865 8.67374 13.3038 8.64258 13.9053 8.64258H14.3574V5.33398C14.3574 4.75408 14.3263 4.32225 14.2549 3.99707C14.1847 3.67795 14.0825 3.49283 13.9619 3.37207C13.8412 3.25136 13.6561 3.1493 13.3369 3.0791C13.0117 3.00766 12.5801 2.97657 12 2.97656H6.28613ZM13.9053 9.64258C13.3253 9.64258 12.8935 9.67372 12.5684 9.74512C12.2492 9.81527 12.0641 9.91745 11.9434 10.0381C11.8226 10.1588 11.7206 10.3439 11.6504 10.6631C11.579 10.9883 11.5479 11.42 11.5479 12V21.0234H15.3096V18.667C15.3096 18.3909 15.5334 18.167 15.8096 18.167C16.0857 18.167 16.3096 18.3909 16.3096 18.667V21.0234H20.0713V12C20.0713 11.42 20.0412 10.9883 19.9697 10.6631C19.8995 10.3438 19.7965 10.1588 19.6758 10.0381C19.555 9.91741 19.3701 9.81528 19.0508 9.74512C18.8069 9.69154 18.5033 9.66048 18.1221 9.64844L17.7148 9.64258H13.9053ZM16.7617 15.3096C17.0377 15.3097 17.2616 15.5336 17.2617 15.8096C17.2616 16.0855 17.0376 16.3094 16.7617 16.3096H14.8574C14.5814 16.3096 14.3576 16.0856 14.3574 15.8096C14.3575 15.5335 14.5814 15.3096 14.8574 15.3096H16.7617ZM16.8633 12.4619C17.0908 12.5087 17.2616 12.7108 17.2617 12.9521C17.2617 13.1936 17.0908 13.3955 16.8633 13.4424L16.7617 13.4521H14.8574C14.5813 13.4521 14.3574 13.2283 14.3574 12.9521C14.3575 12.6761 14.5814 12.4521 14.8574 12.4521H16.7617L16.8633 12.4619Z" fill="currentColor"/>
</svg>
