<svg width="24" height="24" viewBox="0 0 24 24" fill="none" xmlns="http://www.w3.org/2000/svg">
<path fill-rule="evenodd" clip-rule="evenodd" d="M1.5 6C1.5 3.51472 3.51472 1.5 6 1.5H18C20.4853 1.5 22.5 3.51472 22.5 6V18C22.5 20.4853 20.4853 22.5 18 22.5H6C3.51472 22.5 1.5 20.4853 1.5 18V6ZM6 2.5C4.067 2.5 2.5 4.067 2.5 6V18C2.5 19.933 4.067 21.5 6 21.5H18C19.933 21.5 21.5 19.933 21.5 18V6C21.5 4.067 19.933 2.5 18 2.5H6ZM15.182 8.81802C15.3772 9.01328 15.3772 9.32986 15.182 9.52512L12.7071 12L15.182 14.4749C15.3772 14.6701 15.3772 14.9867 15.182 15.182C14.9867 15.3772 14.6701 15.3772 14.4749 15.182L12 12.7071L9.52513 15.182C9.32987 15.3772 9.01328 15.3772 8.81802 15.182C8.62276 14.9867 8.62276 14.6701 8.81802 14.4749L11.2929 12L8.81802 9.52513C8.62276 9.32987 8.62276 9.01328 8.81802 8.81802C9.01328 8.62276 9.32987 8.62276 9.52513 8.81802L12 11.2929L14.4749 8.81802C14.6701 8.62275 14.9867 8.62275 15.182 8.81802Z" fill="currentColor"/>
</svg>
