<svg width="24" height="24" viewBox="0 0 24 24" fill="none" xmlns="http://www.w3.org/2000/svg">
<path fill-rule="evenodd" clip-rule="evenodd" d="M9.58113 3.057C10.5666 0.981003 13.4334 0.980997 14.4189 3.057L15.8096 5.98677C16.0605 6.51535 16.5403 6.8723 17.0843 6.95449L20.194 7.4243C22.4237 7.76116 23.2612 10.5689 21.691 12.1603L19.4408 14.4408C19.0387 14.8484 18.8508 15.4415 18.9473 16.027L19.4786 19.2472C19.8463 21.4763 17.5771 23.2729 15.5624 22.1717L12.781 20.6513C12.2914 20.3837 11.7086 20.3837 11.219 20.6513L8.43759 22.1717C6.42293 23.2729 4.15374 21.4763 4.52146 19.2472L5.05266 16.027C5.14925 15.4415 4.96136 14.8484 4.55918 14.4408L2.30897 12.1603C0.738794 10.5689 1.57631 7.76116 3.80598 7.4243L6.91569 6.95449C7.45975 6.8723 7.93951 6.51535 8.19042 5.98677L9.58113 3.057ZM13.5155 3.48582C12.8916 2.17139 11.1084 2.17139 10.4845 3.48582L9.09381 6.41559C8.70563 7.23335 7.95004 7.80957 7.06507 7.94327L3.95536 8.41308C2.58636 8.61991 1.98695 10.4101 3.02079 11.4579L5.271 13.7384C5.90288 14.3788 6.18685 15.2955 6.03933 16.1898L5.50813 19.4099C5.26112 20.9072 6.75386 21.9524 7.95796 21.2942L10.7394 19.7739C11.5279 19.3429 12.4721 19.3429 13.2607 19.7739L16.0421 21.2942C17.2462 21.9524 18.7389 20.9072 18.4919 19.4099L17.9607 16.1898C17.8132 15.2955 18.0971 14.3788 18.729 13.7384L20.9792 11.4579C22.0131 10.4101 21.4137 8.61991 20.0447 8.41308L16.9349 7.94327C16.05 7.80957 15.2944 7.23335 14.9062 6.41559L13.5155 3.48582Z" fill="currentColor"/>
</svg>
