<svg width="61" height="36" viewBox="0 0 61 36" fill="none" xmlns="http://www.w3.org/2000/svg">
<g clip-path="url(#clip0_3054_114802)">
<path d="M25.5991 3.56144V9.24893H27.6116V5.39097L58.1615 2.92508V32.9535L27.6116 30.4876V24.3626H25.5991V32.3171L60.174 35.1012V0.777344L25.5991 3.56144Z" fill="#E8433D"/>
<path d="M0.118164 11.7148H4.42492C5.67267 11.7148 6.63867 11.9933 7.36317 12.5898C8.08767 13.1864 8.40967 14.0217 8.40967 15.1353C8.40967 16.2092 8.04742 17.0444 7.36317 17.6012C6.67892 18.158 5.71292 18.4762 4.46517 18.4762H2.29166V22.6126H0.118164V11.7148ZM2.29166 16.6864H4.34442C4.90792 16.6864 5.39092 16.5671 5.71292 16.2887C6.03492 16.0103 6.19592 15.6126 6.19592 15.0955C6.19592 14.0614 5.55192 13.5046 4.30417 13.5046H2.33192V16.6864H2.29166Z" fill="#282828"/>
<path d="M14.3704 14.7793H15.3364V16.6486H14.2497C13.6057 16.6486 13.1227 16.8873 12.8007 17.3645C12.4787 17.8418 12.3177 18.4782 12.3177 19.3532V22.6145H10.3052V14.7793H12.0359V16.4498C12.5189 15.3361 13.2837 14.7793 14.3704 14.7793Z" fill="#282828"/>
<path d="M19.9222 14.5801C21.009 14.5801 21.8542 14.8585 22.458 15.3755C23.0617 15.8926 23.3837 16.7278 23.3837 17.8017V22.6142H21.653V21.7789C21.0895 22.4949 20.2845 22.813 19.1977 22.813C18.3122 22.813 17.5877 22.5744 17.0645 22.0971C16.501 21.6199 16.2192 21.0233 16.2192 20.3074C16.2192 19.5517 16.501 18.9551 17.0645 18.5176C17.628 18.0403 18.3927 17.8017 19.3185 17.8017C20.1637 17.8017 20.848 18.0005 21.3712 18.3983V17.9608C21.3712 16.8471 20.7272 16.2903 19.4795 16.2903C18.7147 16.2903 17.9902 16.4892 17.2657 16.9267H17.0645V15.1369C17.9902 14.7392 18.916 14.5801 19.9222 14.5801ZM18.6745 20.9437C18.9562 21.1426 19.3587 21.2221 19.882 21.2221C20.4052 21.2221 20.8077 21.1426 21.0895 20.9437C21.3712 20.7449 21.5322 20.5062 21.5322 20.188C21.5322 19.8699 21.3712 19.6312 21.0895 19.4324C20.8077 19.2335 20.4052 19.1539 19.882 19.1539C19.3587 19.1539 18.9562 19.2335 18.6745 19.4324C18.3927 19.6312 18.2317 19.8699 18.2317 20.188C18.2317 20.5062 18.3927 20.7449 18.6745 20.9437Z" fill="#282828"/>
<path d="M33.0457 22.6138H30.5501L27.6521 18.8752V22.6138H25.6396V10.8809H27.6521V17.9206L30.2684 14.7388H32.7236L29.5841 18.2786L33.0457 22.6138Z" fill="#282828"/>
<path d="M39.5629 16.3695H37.2686V19.6309C37.2686 19.9888 37.3894 20.2672 37.5906 20.4263C37.7919 20.6252 38.0736 20.7047 38.4359 20.7047H39.4824V22.574H38.0736C37.1881 22.574 36.4636 22.3354 35.9806 21.8979C35.4976 21.4604 35.2561 20.824 35.2561 19.9888V16.3297H33.5254V14.7388H35.2561V12.1934H37.2686V14.7388H39.5629V16.3695Z" fill="#282828"/>
<path d="M41.3779 13.1873C41.1364 12.9885 41.0156 12.6703 41.0156 12.3123C41.0156 11.9544 41.1364 11.6362 41.3779 11.4373C41.6194 11.2385 41.9414 11.1191 42.3036 11.1191C42.6659 11.1191 42.9879 11.2385 43.2294 11.4373C43.4709 11.676 43.5916 11.9544 43.5916 12.3123C43.5916 12.6703 43.4709 12.9885 43.2294 13.1873C42.9879 13.426 42.7061 13.5055 42.3036 13.5055C41.9414 13.5055 41.6194 13.3862 41.3779 13.1873ZM41.2974 14.7782H43.3099V22.6135H41.2974V14.7782Z" fill="#282828"/>
<path d="M45.1636 22.1767V20.3869H45.3648C46.1296 20.9437 46.9748 21.2221 47.9006 21.2221C48.8666 21.2221 49.3093 20.9835 49.3093 20.5062C49.3093 20.1483 48.9873 19.8699 48.3836 19.6312L47.1761 19.1142C45.9283 18.6369 45.2843 17.8414 45.2843 16.7676C45.2843 16.0517 45.5661 15.4949 46.0893 15.1369C46.6528 14.7392 47.3371 14.5801 48.2628 14.5801C49.2691 14.5801 50.0741 14.7789 50.7583 15.1767V16.8074H50.5571C49.8326 16.4096 49.1483 16.171 48.4238 16.171C47.6188 16.171 47.2163 16.3699 47.2163 16.8074C47.2163 17.1255 47.5383 17.4039 48.1823 17.6824L49.3496 18.1596C50.5973 18.6369 51.2413 19.3926 51.2413 20.4664C51.2413 21.3017 50.9193 21.8983 50.2753 22.2562C49.6313 22.6142 48.8666 22.813 47.9811 22.813C46.9346 22.813 45.9686 22.6142 45.1636 22.1767Z" fill="#282828"/>
</g>
<defs>
<clipPath id="clip0_3054_114802">
<rect width="60.375" height="35" fill="white" transform="translate(0 0.5)"/>
</clipPath>
</defs>
</svg>
