<svg preserveAspectRatio="none" width="100%" height="100%" overflow="visible" style="display: block;" viewBox="0 0 16 16" fill="none" xmlns="http://www.w3.org/2000/svg">
<g id="Stroke/browser" clip-path="url(#clip0_0_842)">
<path id="Vector" fill-rule="evenodd" clip-rule="evenodd" d="M14.1663 5.83333H1.83333V12.0003C1.83351 13.1968 2.80382 14.1663 4.00033 14.1663H12.0003C13.1967 14.1662 14.1662 13.1967 14.1663 12.0003V5.83333ZM14.1663 4.00033C14.1663 2.80382 13.1968 1.83351 12.0003 1.83333H4.00033C2.80371 1.83333 1.83333 2.80371 1.83333 4.00033V4.83333H14.1663V4.00033ZM15.1663 12.0003C15.1662 13.749 13.749 15.1662 12.0003 15.1663H4.00033C2.25153 15.1663 0.83351 13.7491 0.833333 12.0003V4.00033C0.833333 2.25142 2.25142 0.833333 4.00033 0.833333H12.0003C13.7491 0.83351 15.1663 2.25153 15.1663 4.00033V12.0003ZM12.6667 3.33333C12.6667 3.70152 12.3682 4 12 4C11.6318 4 11.3333 3.70152 11.3333 3.33333C11.3333 2.96514 11.6318 2.66667 12 2.66667C12.3682 2.66667 12.6667 2.96514 12.6667 3.33333ZM9.33333 4C9.70152 4 10 3.70152 10 3.33333C10 2.96514 9.70152 2.66667 9.33333 2.66667C8.96514 2.66667 8.66667 2.96514 8.66667 3.33333C8.66667 3.70152 8.96514 4 9.33333 4Z" fill="var(--fill-0, #282828)"/>
</g>
<defs>
<clipPath id="clip0_0_842">
<rect width="16" height="16" fill="white"/>
</clipPath>
</defs>
</svg>
