<svg preserveAspectRatio="none" width="100%" height="100%" overflow="visible" style="display: block;" viewBox="0 0 16 16" fill="none" xmlns="http://www.w3.org/2000/svg">
<g id="Stroke/notepad">
<path id="Vector" d="M9.33268 0.833008C10.1714 0.833008 10.8773 1.39713 11.0954 2.16602H11.3327C13.0815 2.16602 14.4995 3.58426 14.4997 5.33301V12C14.4995 13.7488 13.0815 15.166 11.3327 15.166H4.66667C2.91802 15.1658 1.49985 13.7486 1.49967 12V5.33301C1.49985 3.58436 2.91802 2.16619 4.66667 2.16602H4.90397C5.12193 1.39714 5.828 0.833154 6.66667 0.833008H9.33268ZM4.66667 3.16602C3.47031 3.16619 2.49985 4.13665 2.49967 5.33301V12C2.49985 13.1964 3.47031 14.1658 4.66667 14.166H11.3327C12.5292 14.166 13.4995 13.1965 13.4997 12V5.33301C13.4995 4.13654 12.5292 3.16602 11.3327 3.16602H11.0954C10.8777 3.93541 10.1718 4.5 9.33268 4.5H6.66667C5.8277 4.49985 5.12166 3.93531 4.90397 3.16602H4.66667ZM7.99967 11.5C8.27571 11.5 8.4995 11.724 8.49967 12C8.4995 12.276 8.27571 12.5 7.99967 12.5H5.33268C5.05695 12.4996 4.83286 12.2758 4.83268 12C4.83286 11.7242 5.05695 11.5004 5.33268 11.5H7.99967ZM10.6667 8.83301C10.9426 8.83318 11.1665 9.05712 11.1667 9.33301C11.1667 9.60904 10.9427 9.83283 10.6667 9.83301H5.33268C5.05684 9.83266 4.83268 9.60893 4.83268 9.33301C4.83286 9.05723 5.05695 8.83336 5.33268 8.83301H10.6667ZM10.6667 6.16602C10.9424 6.16619 11.1663 6.39028 11.1667 6.66602C11.1667 6.94205 10.9427 7.16584 10.6667 7.16602H5.33268C5.05684 7.16566 4.83268 6.94194 4.83268 6.66602C4.83303 6.39039 5.05706 6.16637 5.33268 6.16602H10.6667ZM6.66667 1.83301C6.2068 1.83318 5.83303 2.20619 5.83268 2.66602C5.83268 3.12614 6.20658 3.49982 6.66667 3.5H9.33268C9.79292 3.5 10.1667 3.12625 10.1667 2.66602C10.1663 2.20608 9.7927 1.83301 9.33268 1.83301H6.66667Z" fill="var(--fill-0, #282828)"/>
</g>
</svg>
