<svg preserveAspectRatio="none" width="100%" height="100%" overflow="visible" style="display: block;" viewBox="0 0 16 16" fill="none" xmlns="http://www.w3.org/2000/svg">
<g id="Stroke/add-circle" clip-path="url(#clip0_0_818)">
<path id="Vector" d="M8 0.833008C11.9578 0.833184 15.1658 4.04222 15.166 8C15.1658 11.9578 11.9578 15.1658 8 15.166C4.04222 15.1658 0.833184 11.9578 0.833008 8C0.833184 4.04222 4.04222 0.833184 8 0.833008ZM8 1.83301C4.5945 1.83318 1.83318 4.5945 1.83301 8C1.83318 11.4055 4.5945 14.1658 8 14.166C11.4055 14.1658 14.1658 11.4055 14.166 8C14.1658 4.5945 11.4055 1.83318 8 1.83301ZM8 4.83301C8.27588 4.83318 8.49982 5.05712 8.5 5.33301V7.5H10.666C10.942 7.5 11.1658 7.72401 11.166 8C11.1658 8.27599 10.942 8.5 10.666 8.5H8.5V10.666C8.5 10.942 8.27599 11.1658 8 11.166C7.72401 11.1658 7.5 10.942 7.5 10.666V8.5H5.33301C5.05712 8.49982 4.83318 8.27588 4.83301 8C4.83318 7.72412 5.05712 7.50018 5.33301 7.5H7.5V5.33301C7.50018 5.05712 7.72412 4.83318 8 4.83301Z" fill="var(--fill-0, #282828)"/>
</g>
<defs>
<clipPath id="clip0_0_818">
<rect width="16" height="16" fill="white"/>
</clipPath>
</defs>
</svg>
