<svg preserveAspectRatio="none" width="100%" height="100%" overflow="visible" style="display: block;" viewBox="0 0 16 16" fill="none" xmlns="http://www.w3.org/2000/svg">
<g id="Stroke/Arrows_vert">
<path id="Vector" d="M5.33329 2.83295C5.6093 2.83295 5.83308 3.05698 5.83329 3.33295V11.4589L6.97977 10.3124C7.17494 10.1176 7.49162 10.1177 7.68681 10.3124C7.88196 10.5076 7.88174 10.8242 7.68681 11.0195L5.68681 13.0195C5.49154 13.2147 5.17504 13.2147 4.97977 13.0195L2.97977 11.0195C2.78489 10.8242 2.78464 10.5076 2.97977 10.3124C3.17494 10.1176 3.49162 10.1177 3.68681 10.3124L4.83329 11.4589V3.33295C4.8335 3.057 5.05729 2.83298 5.33329 2.83295ZM10.3909 2.91498C10.5848 2.78691 10.8489 2.80892 11.0198 2.97944L13.0198 4.97944C13.2151 5.1747 13.2151 5.4912 13.0198 5.68647C12.8246 5.88173 12.508 5.88173 12.3128 5.68647L11.1663 4.53998V12.666C11.1663 12.9421 10.9424 13.166 10.6663 13.166C10.3903 13.1658 10.1663 12.942 10.1663 12.666V4.53998L9.01981 5.68647C8.82455 5.88173 8.50804 5.88173 8.31278 5.68647C8.1179 5.49117 8.11764 5.17457 8.31278 4.97944L10.3128 2.97944L10.3909 2.91498Z" fill="var(--fill-0, #282828)"/>
</g>
</svg>
