<svg preserveAspectRatio="none" width="100%" height="100%" overflow="visible" style="display: block;" viewBox="0 0 16 16" fill="none" xmlns="http://www.w3.org/2000/svg">
<g id="Stroke/apps" clip-path="url(#clip0_0_880)">
<path id="Vector" d="M4 8.83301C5.74864 8.83318 7.16584 10.2514 7.16602 12C7.16584 13.7486 5.74864 15.1658 4 15.166C2.25136 15.1658 0.833184 13.7486 0.833008 12C0.833184 10.2514 2.25136 8.83318 4 8.83301ZM13.333 8.83301C14.3453 8.83301 15.1657 9.65379 15.166 10.666V13.333C15.166 14.3455 14.3455 15.166 13.333 15.166H10.666C9.65379 15.1657 8.83301 14.3453 8.83301 13.333V10.666C8.83336 9.65401 9.65401 8.83336 10.666 8.83301H13.333ZM4 9.83301C2.80364 9.83318 1.83318 10.8036 1.83301 12C1.83318 13.1964 2.80364 14.1658 4 14.166C5.19636 14.1658 6.16584 13.1964 6.16602 12C6.16584 10.8036 5.19636 9.83318 4 9.83301ZM10.666 9.83301C10.2063 9.83336 9.83336 10.2063 9.83301 10.666V13.333C9.83301 13.793 10.2061 14.1657 10.666 14.166H13.333C13.7932 14.166 14.166 13.7932 14.166 13.333V10.666C14.1657 10.2061 13.793 9.83301 13.333 9.83301H10.666ZM5.33301 0.833008C6.34531 0.833008 7.16566 1.65379 7.16602 2.66602V5.33301C7.16602 6.34553 6.34553 7.16602 5.33301 7.16602H2.66602C1.65379 7.16566 0.833008 6.34531 0.833008 5.33301V2.66602C0.833359 1.65401 1.65401 0.833359 2.66602 0.833008H5.33301ZM12 0.833008C13.7486 0.833184 15.1658 2.25136 15.166 4C15.1658 5.74864 13.7486 7.16584 12 7.16602C10.2514 7.16584 8.83318 5.74864 8.83301 4C8.83318 2.25136 10.2514 0.833184 12 0.833008ZM2.66602 1.83301C2.20629 1.83336 1.83336 2.20629 1.83301 2.66602V5.33301C1.83301 5.79303 2.20608 6.16566 2.66602 6.16602H5.33301C5.79324 6.16602 6.16602 5.79324 6.16602 5.33301V2.66602C6.16566 2.20608 5.79303 1.83301 5.33301 1.83301H2.66602ZM12 1.83301C10.8036 1.83318 9.83318 2.80364 9.83301 4C9.83318 5.19636 10.8036 6.16584 12 6.16602C13.1964 6.16584 14.1658 5.19636 14.166 4C14.1658 2.80364 13.1964 1.83318 12 1.83301Z" fill="var(--fill-0, #3C83F6)"/>
</g>
<defs>
<clipPath id="clip0_0_880">
<rect width="16" height="16" fill="white"/>
</clipPath>
</defs>
</svg>
