<svg preserveAspectRatio="none" width="100%" height="100%" overflow="visible" style="display: block;" viewBox="0 0 16 16" fill="none" xmlns="http://www.w3.org/2000/svg">
<g id="Stroke/collection">
<path id="Vector" d="M10.666 1.49967C11.6783 1.49967 12.4996 2.32046 12.5 3.33268V4.23698C13.269 4.45483 13.8329 5.1609 13.833 5.99967V6.90299C14.6023 7.12069 15.1659 7.82772 15.166 8.66667V11.3327C15.166 13.0815 13.7488 14.4995 12 14.4997H4C2.25125 14.4995 0.833008 13.0815 0.833008 11.3327V8.66667C0.833154 7.82791 1.39701 7.12086 2.16602 6.90299V5.99967C2.16616 5.16066 2.73064 4.45365 3.5 4.236V3.33268C3.50035 2.32057 4.32085 1.49985 5.33301 1.49967H10.666ZM2.66602 7.83268C2.20619 7.83303 1.83318 8.2068 1.83301 8.66667V11.3327C1.83301 12.5292 2.80353 13.4995 4 13.4997H12C13.1965 13.4995 14.166 12.5292 14.166 11.3327V8.66667C14.1658 8.20658 13.7931 7.83268 13.333 7.83268H2.66602ZM9.33301 8.83268C9.60893 8.83268 9.83266 9.05684 9.83301 9.33268C9.83301 9.60882 9.60915 9.83268 9.33301 9.83268H6.66602C6.39017 9.83233 6.16602 9.60861 6.16602 9.33268C6.16637 9.05706 6.39039 8.83303 6.66602 8.83268H9.33301ZM4 5.16667C3.54002 5.16684 3.16619 5.5397 3.16602 5.99967V6.83268H12.833V5.99967C12.8328 5.5397 12.46 5.16684 12 5.16667H4ZM5.33301 2.49967C4.87314 2.49985 4.50035 2.87285 4.5 3.33268V4.16667H11.5V3.33268C11.4996 2.87274 11.126 2.49967 10.666 2.49967H5.33301Z" fill="var(--fill-0, #41484A)"/>
</g>
</svg>
