<svg preserveAspectRatio="none" width="100%" height="100%" overflow="visible" style="display: block;" viewBox="0 0 24 24" fill="none" xmlns="http://www.w3.org/2000/svg">
<g id="Stroke/check mark-rectangle">
<path id="Vector" d="M17 1.5C17.2761 1.5 17.5 1.72386 17.5 2C17.5 2.27614 17.2761 2.5 17 2.5H5.99998C4.06699 2.5 2.49998 4.067 2.49998 6V18C2.49998 19.933 4.06699 21.5 5.99998 21.5H18C19.933 21.5 21.5 19.933 21.5 18V9C21.5 8.72386 21.7238 8.5 22 8.5C22.2761 8.5 22.5 8.72386 22.5 9V18C22.5 20.4853 20.4853 22.5 18 22.5H5.99998C3.5147 22.5 1.49998 20.4853 1.49998 18V6C1.49998 3.51472 3.5147 1.5 5.99998 1.5H17ZM20.6279 3.66504C20.8127 3.45984 21.1297 3.44322 21.3349 3.62793C21.5401 3.81267 21.5568 4.12972 21.3721 4.33496L13.6338 12.9316C12.7478 13.916 11.248 14.0392 10.2139 13.2119L6.68748 10.3906C6.47185 10.2181 6.43685 9.90313 6.60936 9.6875C6.78186 9.47187 7.09685 9.43687 7.31248 9.60938L10.8389 12.4307C11.4593 12.927 12.3591 12.8533 12.8906 12.2627L20.6279 3.66504Z" fill="var(--fill-0, #282828)"/>
</g>
</svg>
