<svg preserveAspectRatio="none" width="100%" height="100%" overflow="visible" style="display: block;" viewBox="0 0 16 16" fill="none" xmlns="http://www.w3.org/2000/svg">
<g id="Stroke/Employees">
<path id="Vector" d="M8.00018 9.10829C9.24292 9.10833 10.4119 9.43172 11.2853 9.96376C12.1436 10.4867 12.8086 11.2763 12.8088 12.2284C12.8088 12.711 12.6338 13.121 12.3254 13.4442C12.0285 13.7553 11.6271 13.967 11.1916 14.1151C10.3255 14.4096 9.17975 14.4999 8.00018 14.4999C6.82786 14.4999 5.68279 14.4128 4.81561 14.122C4.37951 13.9757 3.97634 13.7658 3.67792 13.4559C3.36784 13.1339 3.19162 12.7247 3.19159 12.2411C3.19163 11.2905 3.85046 10.4975 4.70819 9.9706C5.5805 9.43484 6.75037 9.1083 8.00018 9.10829ZM8.00018 10.1083C6.91384 10.1083 5.92935 10.3946 5.23163 10.8231C4.51934 11.2607 4.19163 11.7843 4.19159 12.2411C4.19162 12.4609 4.26422 12.623 4.39862 12.7626C4.54488 12.9143 4.78295 13.0563 5.133 13.1737C5.83911 13.4105 6.84908 13.4999 8.00018 13.4999C9.15675 13.4999 10.1655 13.4081 10.8693 13.1688C11.2186 13.0501 11.4559 12.9066 11.6017 12.7538C11.736 12.6131 11.8088 12.4491 11.8088 12.2284C11.8086 11.7742 11.4802 11.2536 10.7658 10.8183C10.0661 10.392 9.08054 10.1083 8.00018 10.1083ZM3.00018 8.60536C3.27606 8.60567 3.50018 8.82941 3.50018 9.10536C3.49993 9.3811 3.27591 9.60505 3.00018 9.60536C2.48077 9.60536 1.99955 9.78301 1.65546 10.0321C1.29305 10.2946 1.16718 10.5673 1.16718 10.7206C1.16779 10.9141 1.35578 11.2184 1.71503 11.3026C1.98361 11.3658 2.15106 11.6345 2.08807 11.9032C2.02491 12.1715 1.75593 12.3378 1.48749 12.2753C0.721504 12.0957 0.167672 11.4235 0.167175 10.7206C0.167175 10.1121 0.579168 9.57701 1.06854 9.22255C1.57628 8.85485 2.26152 8.60536 3.00018 8.60536ZM13.0002 8.60536C13.7389 8.60536 14.4241 8.85484 14.9318 9.22255C15.4211 9.57701 15.8332 10.1122 15.8332 10.7206C15.8327 11.4233 15.2792 12.0957 14.5139 12.2753C14.2453 12.3381 13.9765 12.1717 13.9133 11.9032C13.8502 11.6346 14.0168 11.366 14.2853 11.3026C14.6439 11.2185 14.8326 10.9143 14.8332 10.7206C14.8332 10.5673 14.7073 10.2946 14.3449 10.0321C14.0008 9.78295 13.5197 9.60536 13.0002 9.60536C12.7243 9.60524 12.5004 9.38122 12.5002 9.10536C12.5002 8.82929 12.7241 8.60548 13.0002 8.60536ZM8.00018 1.57899C9.80126 1.57914 11.2619 3.03961 11.2619 4.84071C11.2617 6.64188 9.80103 8.10131 8.00018 8.10146H7.97968C6.18324 8.09552 4.73373 6.63433 4.73846 4.83974C4.73903 3.03903 6.19933 1.57906 8.00018 1.57899ZM3.43573 2.30458C3.70584 2.24967 3.96997 2.42429 4.02557 2.69423C4.08084 2.96463 3.90622 3.22955 3.63593 3.28505C2.91682 3.43208 2.37536 4.07011 2.37518 4.8329C2.37523 5.56389 2.87192 6.17876 3.54706 6.35927C3.81323 6.43075 3.97132 6.70523 3.90057 6.97157C3.82927 7.23826 3.55496 7.39721 3.28827 7.32607C2.18731 7.03171 1.37523 6.02862 1.37518 4.8329C1.37536 3.58606 2.25989 2.54491 3.43573 2.30458ZM12.5646 2.30458C13.7412 2.54505 14.626 3.58634 14.6262 4.8329C14.6261 6.02836 13.8131 7.03149 12.7131 7.32607C12.4464 7.39723 12.1721 7.23822 12.1008 6.97157C12.0299 6.70506 12.1888 6.43156 12.4553 6.36024C13.1293 6.17952 13.6261 5.56371 13.6262 4.8329C13.626 4.0702 13.0847 3.43235 12.3654 3.28505C12.095 3.22983 11.9198 2.96559 11.9748 2.69521C12.0302 2.42507 12.2944 2.24967 12.5646 2.30458ZM8.00018 2.57899C6.75128 2.57906 5.7385 3.59185 5.73846 4.84071V4.84267C5.73535 6.08612 6.73931 7.09735 7.9826 7.10146H8.00018C9.24907 7.10131 10.2617 6.08927 10.2619 4.84071C10.2619 3.59189 9.24898 2.57914 8.00018 2.57899Z" fill="var(--fill-0, #282828)"/>
</g>
</svg>
